<svg xmlns="http://www.w3.org/2000/svg" version="1.1" viewBox="0.6533334255218506 0.4411001205444336 909.0198974609375 246.29409790039062" width="910.00" height="247.00">
<g stroke-width="2.00" fill="none" stroke-linecap="butt">
<path stroke="#1e789d" stroke-opacity="0.992" d="&#10;  M 425.95 98.69&#10;  L 384.44 99.05" fill="#000000"/>
<path stroke="#1e789d" stroke-opacity="0.992" d="&#10;  M 595.85 98.78&#10;  L 577.57 98.63" fill="#000000"/>
<path stroke="#1e789d" stroke-opacity="0.992" d="&#10;  M 569.86 98.37&#10;  L 524.85 98.58" fill="#000000"/>
<path stroke="#1e789d" stroke-opacity="0.992" d="&#10;  M 104.30 103.73&#10;  Q 104.45 104.20 104.32 104.40&#10;  Q 104.00 104.86 103.45 104.87&#10;  Q 77.87 104.93 52.77 104.62&#10;  Q 42.10 104.49 27.22 103.10&#10;  Q 18.32 102.27 12.77 97.67" fill="#000000"/>
<path stroke="#1e789d" stroke-opacity="0.992" d="&#10;  M 342.03 93.67&#10;  L 343.25 93.64" fill="#000000"/>
<path stroke="#1e789d" stroke-opacity="0.992" d="&#10;  M 355.97 100.00&#10;  L 259.28 100.89" fill="#000000"/>
<path stroke="#1e789d" stroke-opacity="0.992" d="&#10;  M 718.49 93.84&#10;  L 725.22 93.84" fill="#000000"/>
<path stroke="#1e789d" stroke-opacity="0.992" d="&#10;  M 757.91 99.46&#10;  L 662.23 99.63" fill="#000000"/>
<path stroke="#1e789d" stroke-opacity="0.992" d="&#10;  M 172.66 101.32&#10;  L 140.85 102.13" fill="#000000"/>
<path stroke="#1e789d" stroke-opacity="0.992" d="&#10;  M 906.18 100.28&#10;  Q 887.31 101.12 873.56 100.05&#10;  Q 872.43 99.96 872.07 99.01" fill="#000000"/>
<path stroke="#1e789d" stroke-opacity="0.992" d="&#10;  M 821.60 100.83&#10;  L 789.99 100.39" fill="#000000"/>
<path stroke="#1e789d" stroke-opacity="0.992" d="&#10;  M 472.01 93.85&#10;  L 477.22 93.89" fill="#000000"/>
<path stroke="#1e789d" stroke-opacity="0.992" d="&#10;  M 486.18 99.01&#10;  L 444.11 99.18" fill="#000000"/>
</g>
<path fill="#3c8ab1" fill-opacity="0.992" d="&#10;  M 425.95 98.69&#10;  L 384.44 99.05&#10;  L 389.94 65.21&#10;  A 1.51 1.39 -42.6 0 0 389.96 64.97&#10;  Q 390.00 59.91 391.67 54.16&#10;  A 6.03 5.88 54.9 0 0 391.89 52.79&#10;  C 392.09 48.01 393.82 43.60 394.18 39.02&#10;  C 394.44 35.69 395.89 31.66 396.11 27.83&#10;  C 396.31 24.41 397.83 20.61 397.97 17.69&#10;  Q 398.12 14.37 399.02 11.39&#10;  Q 399.94 8.32 400.44 3.23&#10;  Q 400.76 -0.11 404.02 0.55&#10;  Q 409.56 1.66 415.04 2.56&#10;  Q 416.33 2.77 417.59 3.04&#10;  Q 429.23 5.52 440.91 8.36&#10;  A 0.89 0.88 17.4 0 1 441.53 9.53&#10;  Q 440.39 12.51 440.09 15.37&#10;  C 439.62 19.94 438.42 22.53 438.00 26.88&#10;  Q 437.51 31.86 436.23 36.75&#10;  C 435.93 37.93 435.88 40.36 435.44 42.03&#10;  Q 434.03 47.40 433.88 51.32&#10;  A 8.26 7.74 56.0 0 1 433.58 53.19&#10;  Q 432.08 58.40 431.84 63.35&#10;  Q 431.83 63.42 431.82 63.49&#10;  L 425.95 98.69&#10;  Z&#10;  M 401.70 35.38&#10;  Q 406.62 35.95 415.55 37.96&#10;  C 420.10 38.99 423.92 40.33 428.68 40.50&#10;  A 1.20 1.20 0.0 0 0 429.91 39.47&#10;  C 430.14 37.80 429.99 35.76 430.67 33.95&#10;  Q 431.84 30.80 432.02 27.88&#10;  C 432.33 22.73 434.25 18.65 434.09 13.79&#10;  A 1.79 1.79 0.0 0 0 432.41 12.06&#10;  Q 428.63 11.83 425.67 10.75&#10;  C 422.99 9.77 420.42 10.20 418.04 9.15&#10;  Q 416.07 8.28 412.75 7.89&#10;  Q 410.71 7.64 407.57 6.47&#10;  A 1.59 1.59 0.0 0 0 405.49 7.50&#10;  Q 404.30 11.52 404.08 14.69&#10;  Q 403.87 17.84 402.95 20.72&#10;  Q 401.78 24.39 401.92 28.43&#10;  A 3.07 3.06 52.1 0 1 401.80 29.41&#10;  L 400.57 33.69&#10;  A 1.34 1.33 11.4 0 0 401.70 35.38&#10;  Z"/>
<path fill="#3c8ab1" fill-opacity="0.992" d="&#10;  M 595.85 98.78&#10;  L 577.57 98.63&#10;  L 573.58 92.22&#10;  A 0.97 0.97 0.0 0 0 571.94 92.21&#10;  Q 569.91 95.41 569.86 98.37&#10;  L 524.85 98.58&#10;  L 525.86 93.40&#10;  A 0.58 0.21 -64.9 0 0 525.87 93.29&#10;  C 526.21 88.19 527.83 84.29 528.09 79.58&#10;  Q 528.24 76.89 529.62 71.84&#10;  A 9.67 9.58 -37.1 0 0 529.96 69.46&#10;  Q 530.04 64.75 531.60 59.84&#10;  A 8.00 7.89 55.1 0 0 531.95 57.79&#10;  Q 532.11 53.75 533.47 48.76&#10;  A 13.07 12.41 -36.7 0 0 533.90 46.27&#10;  Q 534.27 41.07 536.03 35.09&#10;  A 1.63 1.62 -75.6 0 1 537.93 33.96&#10;  L 576.11 42.05&#10;  A 1.15 1.15 0.0 0 1 576.95 43.59&#10;  Q 576.12 45.79 576.02 47.03&#10;  C 575.74 50.28 574.26 53.78 574.11 56.22&#10;  C 573.84 60.55 571.92 64.97 571.90 69.42&#10;  A 5.69 5.48 54.0 0 1 571.71 70.79&#10;  Q 569.62 78.43 569.44 84.26&#10;  Q 569.43 84.54 569.56 84.67&#10;  A 1.08 1.07 -43.6 0 0 571.06 84.70&#10;  C 576.60 79.46 580.95 73.55 586.02 68.15&#10;  Q 596.93 56.53 607.10 44.86&#10;  C 609.13 42.52 610.59 42.17 613.91 42.16&#10;  Q 638.71 42.09 647.93 42.22&#10;  A 0.67 0.67 0.0 0 1 648.41 43.35&#10;  L 595.85 98.78&#10;  Z&#10;  M 569.97 47.77&#10;  A 1.38 1.38 0.0 0 0 568.90 46.17&#10;  L 542.29 40.53&#10;  A 1.38 1.38 0.0 0 0 540.64 41.64&#10;  L 536.02 66.91&#10;  A 1.38 1.38 0.0 0 0 537.09 68.51&#10;  L 563.70 74.15&#10;  A 1.38 1.38 0.0 0 0 565.35 73.04&#10;  L 569.97 47.77&#10;  Z"/>
<path fill="#3c8ab1" fill-opacity="0.992" d="&#10;  M 104.30 103.73&#10;  Q 104.45 104.20 104.32 104.40&#10;  Q 104.00 104.86 103.45 104.87&#10;  Q 77.87 104.93 52.77 104.62&#10;  Q 42.10 104.49 27.22 103.10&#10;  Q 18.32 102.27 12.77 97.67&#10;  Q 7.87 88.37 9.16 77.80&#10;  Q 9.96 71.25 12.84 64.90&#10;  C 17.91 53.78 28.04 47.45 39.19 43.54&#10;  Q 42.83 42.26 45.42 41.89&#10;  C 48.00 41.52 50.80 40.50 53.87 40.19&#10;  Q 66.33 38.94 77.98 40.35&#10;  Q 89.09 41.70 100.08 46.90&#10;  Q 102.47 48.03 105.31 50.15&#10;  Q 119.59 60.82 116.50 78.80&#10;  A 1.69 1.69 0.0 0 1 114.83 80.21&#10;  L 88.32 80.21&#10;  A 1.95 1.93 -2.4 0 1 86.38 78.44&#10;  L 85.99 74.09&#10;  A 2.73 2.66 25.8 0 0 85.51 72.77&#10;  Q 81.91 67.70 77.72 66.52&#10;  Q 63.80 62.61 50.94 66.58&#10;  Q 46.62 67.91 42.15 74.28&#10;  A 1.43 1.42 -27.7 0 0 41.89 75.10&#10;  L 41.89 81.88&#10;  A 1.64 1.62 24.1 0 0 42.32 82.98&#10;  Q 45.45 86.42 48.55 87.44&#10;  Q 52.47 88.73 59.00 90.03&#10;  Q 68.22 91.86 74.74 93.10&#10;  Q 83.75 94.80 89.40 96.72&#10;  Q 95.97 98.94 103.17 102.87&#10;  Q 103.80 103.22 104.30 103.73&#10;  Z"/>
<path fill="#3c8ab1" fill-opacity="0.992" d="&#10;  M 342.03 93.67&#10;  L 343.25 93.64&#10;  L 354.66 93.73&#10;  A 1.62 1.62 0.0 0 1 356.26 95.45&#10;  L 355.97 100.00&#10;  L 259.28 100.89&#10;  C 260.15 95.06 260.00 88.60 260.87 83.40&#10;  Q 261.93 77.13 262.08 72.77&#10;  Q 262.21 69.02 263.13 62.15&#10;  Q 264.28 53.53 264.27 47.01&#10;  Q 264.27 45.89 265.00 43.76&#10;  A 2.40 2.39 -80.4 0 1 267.26 42.15&#10;  L 365.34 42.15&#10;  A 0.65 0.64 -87.2 0 1 365.98 42.86&#10;  L 363.66 66.71&#10;  A 2.10 2.09 -87.1 0 1 361.58 68.60&#10;  L 296.27 68.60&#10;  A 1.80 1.80 0.0 0 0 294.48 70.22&#10;  L 292.32 92.44&#10;  A 1.29 1.29 0.0 0 0 293.61 93.86&#10;  L 342.03 93.67&#10;  Z"/>
<path fill="#3c8ab1" fill-opacity="0.992" d="&#10;  M 497.04 43.85&#10;  L 493.98 67.17&#10;  A 1.50 1.50 0.0 0 1 492.49 68.48&#10;  L 451.56 68.48&#10;  A 1.50 1.50 0.0 0 1 450.08 66.71&#10;  L 454.35 43.39&#10;  A 1.50 1.50 0.0 0 1 455.83 42.16&#10;  L 495.55 42.16&#10;  A 1.50 1.50 0.0 0 1 497.04 43.85&#10;  Z"/>
<path fill="#3c8ab1" fill-opacity="0.992" d="&#10;  M 718.49 93.84&#10;  L 725.22 93.84&#10;  L 756.96 93.59&#10;  A 1.56 1.56 0.0 0 1 758.52 95.39&#10;  L 757.91 99.46&#10;  L 662.23 99.63&#10;  C 662.94 93.34 663.85 87.02 664.19 80.77&#10;  Q 664.41 76.85 665.32 70.75&#10;  Q 665.82 67.38 666.18 60.72&#10;  Q 666.62 52.69 668.23 43.26&#10;  A 1.31 1.30 -85.0 0 1 669.51 42.18&#10;  L 767.41 42.18&#10;  A 1.38 1.38 0.0 0 1 768.78 43.70&#10;  L 766.54 66.75&#10;  A 1.98 1.98 0.0 0 1 764.57 68.53&#10;  L 699.29 68.53&#10;  A 2.48 2.48 0.0 0 0 696.82 70.78&#10;  L 694.67 92.82&#10;  A 1.01 1.00 2.6 0 0 695.68 93.92&#10;  L 718.49 93.84&#10;  Z"/>
<path fill="#3c8ab1" fill-opacity="0.992" d="&#10;  M 172.66 101.32&#10;  L 140.85 102.13&#10;  C 141.11 98.11 141.94 93.79 142.07 90.44&#10;  C 142.33 83.24 144.08 76.79 144.09 69.98&#10;  Q 144.09 66.06 145.72 55.45&#10;  C 146.33 51.44 145.69 46.96 147.18 43.27&#10;  A 1.60 1.60 0.0 0 1 148.67 42.26&#10;  L 177.34 42.26&#10;  A 1.31 1.31 0.0 0 1 178.64 43.68&#10;  Q 177.45 57.14 176.83 62.61&#10;  C 176.00 69.84 175.93 75.32 174.80 82.18&#10;  Q 174.52 83.84 173.83 91.76&#10;  Q 173.42 96.35 172.66 101.32&#10;  Z"/>
<path fill="#3c8ab1" fill-opacity="0.992" d="&#10;  M 906.18 100.28&#10;  Q 887.31 101.12 873.56 100.05&#10;  Q 872.43 99.96 872.07 99.01&#10;  Q 877.56 92.08 877.30 82.73&#10;  C 877.03 72.75 867.28 68.45 858.48 68.40&#10;  Q 857.84 68.40 826.98 68.22&#10;  Q 823.99 68.20 824.04 71.01&#10;  C 824.10 74.37 823.71 77.79 823.47 79.49&#10;  Q 822.04 89.98 821.60 100.83&#10;  L 789.99 100.39&#10;  L 795.49 43.86&#10;  A 1.66 1.65 -87.1 0 1 797.13 42.37&#10;  Q 817.70 42.30 862.00 42.20&#10;  Q 867.67 42.18 876.75 44.04&#10;  C 887.76 46.29 897.85 51.71 904.08 60.88&#10;  Q 908.11 66.80 909.27 75.61&#10;  Q 910.86 87.76 906.18 100.28&#10;  Z"/>
<path fill="#1b5d7e" fill-opacity="0.992" d="&#10;  M 343.25 93.64&#10;  L 342.03 93.67&#10;  L 343.25 93.64&#10;  Z"/>
<path fill="#3c8ab1" fill-opacity="0.992" d="&#10;  M 472.01 93.85&#10;  L 477.22 93.89&#10;  L 485.60 93.90&#10;  A 1.29 1.29 0.0 0 1 486.87 95.44&#10;  L 486.18 99.01&#10;  L 444.11 99.18&#10;  L 444.41 95.60&#10;  A 1.91 1.90 2.5 0 1 446.31 93.86&#10;  L 472.01 93.85&#10;  Z"/>
<path fill="#1b5d7e" fill-opacity="0.992" d="&#10;  M 477.22 93.89&#10;  L 472.01 93.85&#10;  L 477.22 93.89&#10;  Z"/>
<path fill="#1b5d7e" fill-opacity="0.992" d="&#10;  M 725.22 93.84&#10;  L 718.49 93.84&#10;  L 725.22 93.84&#10;  Z"/>
<path fill="#1b5d7e" fill-opacity="0.992" d="&#10;  M 104.30 103.73&#10;  Q 104.82 103.84 105.21 104.12&#10;  Q 110.47 107.95 113.48 113.44&#10;  Q 116.26 118.49 116.47 125.45&#10;  C 116.66 131.48 116.33 138.21 114.29 143.85&#10;  Q 107.96 161.39 90.11 169.14&#10;  Q 87.14 170.43 80.50 172.28&#10;  Q 75.71 173.61 70.56 174.11&#10;  Q 53.77 175.72 38.27 173.64&#10;  Q 33.22 172.97 24.57 169.90&#10;  C 15.38 166.64 5.89 159.86 2.60 150.13&#10;  Q -0.32 141.47 1.14 132.77&#10;  A 2.50 2.49 -84.0 0 1 3.70 130.69&#10;  Q 17.71 131.22 28.46 130.68&#10;  Q 30.83 130.56 31.01 132.71&#10;  Q 31.17 134.63 31.94 138.49&#10;  A 3.02 3.00 24.2 0 0 32.30 139.43&#10;  Q 36.60 146.51 43.40 147.59&#10;  Q 53.40 149.19 57.75 148.88&#10;  Q 60.40 148.69 69.00 147.92&#10;  A 3.42 3.24 30.1 0 0 70.05 147.67&#10;  Q 72.53 146.65 75.72 145.49&#10;  Q 78.62 144.43 81.63 140.69&#10;  Q 85.44 135.97 83.55 130.41&#10;  Q 82.44 127.15 77.86 124.44&#10;  Q 73.28 121.73 66.02 120.23&#10;  Q 61.56 119.31 59.69 118.81&#10;  C 56.64 117.98 54.11 118.01 51.24 117.10&#10;  Q 50.66 116.91 43.41 115.50&#10;  Q 31.25 113.13 21.89 107.11&#10;  Q 16.40 103.57 12.77 97.67&#10;  Q 18.32 102.27 27.22 103.10&#10;  Q 42.10 104.49 52.77 104.62&#10;  Q 77.87 104.93 103.45 104.87&#10;  Q 104.00 104.86 104.32 104.40&#10;  Q 104.45 104.20 104.30 103.73&#10;  Z"/>
<path fill="#1b5d7e" fill-opacity="0.992" d="&#10;  M 524.85 98.58&#10;  L 569.86 98.37&#10;  Q 568.36 101.76 567.96 105.08&#10;  Q 567.45 109.37 567.43 109.47&#10;  C 566.73 113.14 566.17 117.34 565.92 120.72&#10;  Q 565.55 125.84 562.80 130.54&#10;  Q 562.09 131.76 561.91 136.20&#10;  A 11.83 11.70 52.8 0 1 561.62 138.41&#10;  Q 560.41 143.70 560.17 146.59&#10;  Q 559.79 151.18 559.11 154.51&#10;  Q 558.12 159.36 557.94 162.48&#10;  C 557.74 166.08 556.66 169.39 556.18 172.89&#10;  Q 555.83 175.51 555.41 177.03&#10;  Q 552.68 186.98 549.87 193.12&#10;  Q 532.87 230.34 493.66 242.97&#10;  C 490.94 243.84 487.43 244.19 484.23 245.32&#10;  A 8.99 8.74 34.0 0 1 481.50 245.81&#10;  Q 478.58 245.88 474.32 246.35&#10;  C 467.03 247.17 461.12 246.55 451.76 245.71&#10;  Q 449.15 245.47 441.29 243.32&#10;  Q 434.85 241.56 431.08 240.00&#10;  Q 413.89 232.85 401.12 219.10&#10;  C 393.96 211.39 387.32 201.48 383.52 191.66&#10;  Q 380.10 182.85 378.60 174.46&#10;  Q 377.30 167.20 376.78 155.84&#10;  C 376.64 152.74 376.94 148.74 377.63 146.17&#10;  C 378.26 143.83 377.89 141.07 378.48 138.55&#10;  Q 379.45 134.40 379.87 130.71&#10;  Q 380.60 124.32 381.07 121.87&#10;  C 381.86 117.75 382.07 114.12 382.86 110.08&#10;  Q 383.98 104.34 384.44 99.05&#10;  L 425.95 98.69&#10;  Q 425.70 102.82 424.52 107.33&#10;  A 14.08 14.03 54.8 0 0 424.09 109.85&#10;  C 423.65 115.33 422.25 119.90 421.85 125.12&#10;  Q 421.66 127.47 420.25 133.70&#10;  A 6.23 5.78 55.4 0 0 420.10 134.74&#10;  Q 419.84 139.15 418.58 144.36&#10;  A 1.40 1.40 0.0 0 0 419.94 146.09&#10;  L 489.24 146.09&#10;  A 1.27 1.27 0.0 0 1 490.50 147.53&#10;  L 487.45 170.79&#10;  A 1.37 1.36 -86.1 0 1 486.10 171.98&#10;  L 423.70 171.98&#10;  A 1.67 1.67 0.0 0 0 422.24 174.46&#10;  Q 423.50 176.74 424.04 178.72&#10;  A 3.71 3.66 22.8 0 0 424.38 179.54&#10;  Q 434.43 196.58 453.00 202.70&#10;  C 459.68 204.89 467.03 204.27 474.33 204.00&#10;  A 5.57 5.27 -54.0 0 0 475.88 203.71&#10;  Q 478.73 202.73 480.62 202.25&#10;  Q 482.70 201.73 485.37 200.55&#10;  Q 501.31 193.51 509.56 177.83&#10;  Q 514.59 168.26 515.62 159.72&#10;  Q 516.87 149.35 517.61 146.37&#10;  Q 518.04 144.66 518.16 141.37&#10;  A 11.18 11.17 -36.8 0 1 518.47 139.22&#10;  Q 519.93 133.32 520.17 128.16&#10;  A 13.58 12.84 -38.4 0 1 520.52 125.72&#10;  Q 521.94 119.85 522.12 115.96&#10;  C 522.24 113.21 522.95 111.17 523.65 107.47&#10;  Q 523.93 106.05 524.07 103.01&#10;  Q 524.19 100.46 524.85 98.58&#10;  Z"/>
<path fill="#1b5d7e" fill-opacity="0.992" d="&#10;  M 595.85 98.78&#10;  L 641.83 170.78&#10;  A 0.86 0.86 0.0 0 1 641.08 172.10&#10;  Q 623.50 171.76 605.86 172.11&#10;  Q 604.01 172.15 602.62 169.83&#10;  Q 596.44 159.53 596.38 159.44&#10;  Q 586.69 142.96 581.57 135.23&#10;  Q 579.85 132.64 572.67 121.49&#10;  A 2.02 2.02 0.0 0 1 572.94 118.97&#10;  L 582.67 109.24&#10;  A 2.42 2.41 -40.3 0 0 582.93 106.13&#10;  L 577.57 98.63&#10;  L 595.85 98.78&#10;  Z"/>
<path fill="#1b5d7e" fill-opacity="0.992" d="&#10;  M 486.18 99.01&#10;  L 483.68 117.98&#10;  A 0.82 0.82 0.0 0 1 482.87 118.68&#10;  L 442.57 118.68&#10;  A 1.03 1.02 3.0 0 1 441.55 117.55&#10;  L 442.42 109.79&#10;  A 1.76 1.72 -33.2 0 1 442.51 109.38&#10;  Q 444.23 104.27 444.11 99.18&#10;  L 486.18 99.01&#10;  Z"/>
<path fill="#1b5d7e" fill-opacity="0.992" d="&#10;  M 757.91 99.46&#10;  L 756.40 117.38&#10;  A 1.52 1.51 2.3 0 1 754.89 118.77&#10;  L 693.62 118.77&#10;  A 1.66 1.65 -87.1 0 0 691.98 120.26&#10;  L 689.58 144.92&#10;  A 1.08 1.08 0.0 0 0 690.65 146.10&#10;  L 761.01 146.10&#10;  A 0.97 0.97 0.0 0 1 761.98 147.17&#10;  L 759.69 170.71&#10;  A 1.37 1.37 0.0 0 1 758.33 171.95&#10;  L 656.13 171.95&#10;  A 0.96 0.96 0.0 0 1 655.17 171.04&#10;  C 654.97 167.23 656.05 163.97 656.04 160.57&#10;  C 656.01 154.11 658.00 145.77 658.20 138.14&#10;  Q 658.26 135.92 659.23 128.95&#10;  Q 659.75 125.20 660.29 118.01&#10;  Q 660.72 112.29 661.68 107.08&#10;  C 662.14 104.63 662.10 102.16 662.23 99.63&#10;  L 757.91 99.46&#10;  Z"/>
<path fill="#1b5d7e" fill-opacity="0.992" d="&#10;  M 872.07 99.01&#10;  Q 872.43 99.96 873.56 100.05&#10;  Q 887.31 101.12 906.18 100.28&#10;  Q 900.29 114.99 885.47 121.63&#10;  Q 884.46 122.08 883.84 122.40&#10;  Q 881.16 123.78 877.52 124.24&#10;  Q 876.24 124.40 876.03 126.16&#10;  Q 875.96 126.72 877.05 128.01&#10;  Q 877.29 128.30 878.12 129.92&#10;  Q 889.18 151.70 899.81 170.30&#10;  A 0.96 0.96 0.0 0 1 898.98 171.74&#10;  L 867.39 171.74&#10;  A 2.83 2.81 76.3 0 1 864.88 170.20&#10;  L 845.44 132.02&#10;  A 4.12 4.11 76.4 0 0 841.78 129.78&#10;  L 819.76 129.78&#10;  A 1.60 1.59 2.8 0 0 818.17 131.22&#10;  L 814.30 170.97&#10;  A 1.06 1.05 -87.3 0 1 813.25 171.93&#10;  L 783.82 171.93&#10;  A 1.36 1.35 -86.9 0 1 782.48 170.43&#10;  L 789.99 100.39&#10;  L 821.60 100.83&#10;  Q 821.24 101.73 821.40 102.83&#10;  A 1.46 1.44 85.4 0 0 822.84 104.07&#10;  Q 847.38 104.02 853.27 104.13&#10;  Q 860.89 104.27 867.11 102.04&#10;  C 868.86 101.42 870.47 100.16 872.07 99.01&#10;  Z"/>
<path fill="#1b5d7e" fill-opacity="0.992" d="&#10;  M 355.97 100.00&#10;  L 353.80 117.64&#10;  A 1.06 1.05 3.4 0 1 352.75 118.57&#10;  L 290.89 118.57&#10;  A 1.19 1.18 2.7 0 0 289.71 119.64&#10;  L 287.32 144.21&#10;  A 1.71 1.70 2.9 0 0 289.02 146.08&#10;  L 358.93 146.08&#10;  A 1.12 1.11 3.8 0 1 360.04 147.34&#10;  L 356.99 170.55&#10;  A 1.57 1.56 -86.2 0 1 355.44 171.91&#10;  L 253.38 171.91&#10;  A 1.23 1.23 0.0 0 1 252.16 170.55&#10;  L 259.28 100.89&#10;  L 355.97 100.00&#10;  Z"/>
<path fill="#1b5d7e" fill-opacity="0.992" d="&#10;  M 172.66 101.32&#10;  L 168.44 144.46&#10;  A 1.09 1.08 2.9 0 0 169.52 145.65&#10;  L 236.72 145.65&#10;  A 1.34 1.33 -89.2 0 1 238.05 147.03&#10;  Q 237.90 152.45 236.91 157.78&#10;  C 236.02 162.55 235.90 167.28 235.76 170.46&#10;  A 1.57 1.57 0.0 0 1 234.19 171.96&#10;  L 135.13 171.96&#10;  A 0.90 0.90 0.0 0 1 134.23 171.11&#10;  Q 134.05 167.46 134.27 165.25&#10;  C 135.06 157.56 136.07 151.58 136.20 144.56&#10;  Q 136.23 142.69 137.26 135.69&#10;  Q 137.83 131.84 138.12 126.81&#10;  C 138.45 120.97 139.76 114.77 140.03 108.53&#10;  Q 140.18 105.02 140.85 102.13&#10;  L 172.66 101.32&#10;  Z"/>
</svg>